# xmcd CD database file
#
# Track frame offsets:
#	150
#	24048
#	37680
#	49294
#	68638
#	80978
#	103310
#	121612
#	134583
#	152554
#	171687
#	189970
#
# Disc length: 2818 seconds
#
# Revision: 1
# Processed by: cddbd v1.5.1PL0 Copyright (c) Steve Scherf et al.
# Submitted via: jetAudio 5
#
DISCID=9b0b000c
DTITLE=Pavel Stratan - Amintiri din copilarie
DYEAR=1900
DGENRE=
TTITLE0=Seca
TTITLE1=Inca nu-invatam
TTITLE2=Pestisorul de aur
TTITLE3=Primul sarut
TTITLE4=Viata moldovana
TTITLE5=Paste ani cincizeci
TTITLE6=La tanti Nina
TTITLE7=Sanatate
TTITLE8=M-am nascut de ziua mea
TTITLE9=Copilaria
TTITLE10=Foc la ghete
TTITLE11=Visul
EXTD=
EXTT0=
EXTT1=
EXTT2=
EXTT3=
EXTT4=
EXTT5=
EXTT6=
EXTT7=
EXTT8=
EXTT9=
EXTT10=
EXTT11=
PLAYORDER=
